<svg width="640" height="480" xmlns="http://www.w3.org/2000/svg" xmlns:svg="http://www.w3.org/2000/svg">
 <!-- Created with SVG-edit - https://github.com/SVG-Edit/svgedit-->
 <g class="layer">
  <title>Layer 1</title>
  <g id="svg_35">
   <g id="svg_26">
    <g id="svg_17">
     <path d="m1.94,167.71c137.72,-131.02 300.62,1.02 300.62,1.02c0,0 -300.62,-1.02 -300.62,-1.02z" fill="#FF0000" id="svg_15" stroke="#000000" stroke-opacity="0"/>
     <path d="m301.9,167.98c-138.02,130.7 -300.62,-1.72 -300.62,-1.72c0,0 300.62,1.72 300.62,1.72z" fill="#FF0000" id="svg_16" stroke="#000000" stroke-opacity="0"/>
    </g>
    <ellipse cx="145.71" cy="171.49" fill="#ffffff" id="svg_21" rx="13.08" ry="40.54" stroke="#000000" stroke-opacity="0"/>
   </g>
   <g id="svg_27">
    <g id="svg_28">
     <path d="m329.89,168.25c141.31,-134.43 308.45,1.05 308.45,1.05c0,0 -308.45,-1.05 -308.45,-1.05z" fill="#FF0000" id="svg_29" stroke="#000000" stroke-opacity="0"/>
     <path d="m637.67,168.53c-141.62,134.1 -308.45,-1.76 -308.45,-1.76c0,0 308.45,1.76 308.45,1.76z" fill="#FF0000" id="svg_30" stroke="#000000" stroke-opacity="0"/>
    </g>
    <ellipse cx="477.41" cy="172.13" fill="#ffffff" id="svg_31" rx="13.42" ry="41.6" stroke="#000000" stroke-opacity="0"/>
   </g>
   <path d="m224.18,317.96c-3.27,0.68 -4.87,2.36 -5.75,4.25c-1.08,2.31 -2.31,4.57 -2.72,6.29c-0.59,2.51 -0.67,4.61 -0.68,7.55c-0.01,1.74 0.11,4.6 0.89,6.54c0.92,2.3 1.95,3.76 3.67,5.49c1.7,1.7 3.8,2.7 5.84,4.14c1.71,1.22 3.5,2.99 5.42,4.11c2.27,1.32 4.3,2.03 6.3,3.02c1.84,0.92 4.26,1.78 6.52,2.24c2.33,0.48 5.11,0.99 7.21,1.46c2.46,0.55 4.47,0.69 6.68,0.68c2.47,-0.02 5.08,-0.24 7.16,-0.68c1.58,-0.33 4.23,-1 6.04,-1.55c3.14,-0.97 5.09,-1.75 7.24,-2.6c1.11,-0.44 3.35,-1.31 6.34,-2.79c1.71,-0.85 3.78,-2.12 5.48,-3.36c2.13,-1.54 4.2,-3.04 5.85,-4.71c1.46,-1.47 3.09,-3.59 3.78,-5.53c0.89,-2.52 0.58,-5.04 0.58,-7.33c0,-2.22 1.05,-0.76 2.59,1.35c1.1,1.51 2.64,3.64 4.29,5.3c1.62,1.63 3.18,3.18 4.5,4.5c2,2 3.64,3.63 5.58,5.21c1.35,1.1 3.71,2.86 5.46,4c1.95,1.27 4.16,2.1 5.86,3.03c2.66,1.47 4.06,2.15 6.4,3.16c1.59,0.69 4.58,1.86 6.6,2.43c2.1,0.6 4.71,1.09 6.83,1.5c2.36,0.45 3.6,0.68 6.09,1.13c3.56,0.64 5.66,1.02 7.55,1.32c1.73,0.27 4.94,0.68 7.29,0.77c1.55,0.06 3.83,0.08 6.7,-0.3c2.08,-0.28 4.18,-0.81 7.02,-1.94c1.5,-0.6 3.68,-1.65 6.38,-3.02c1.81,-0.92 3.59,-1.86 5.84,-3.64c1.25,-0.99 3,-2.68 5.07,-4.76c1.59,-1.59 2.93,-3.02 4.16,-4.91c1.09,-1.67 2.15,-3.54 2.82,-6.87c0.41,-2.02 0.35,-3.5 0.96,-6.61c0.32,-1.66 1.08,-4.05 1.56,-6.86c0.36,-2.11 0.32,-4.85 0.32,-6.73c0,-2.6 -0.05,-4.86 -0.65,-7.25l-0.59,-2.2" fill="none" id="svg_34" stroke="#000000"/>
  </g>
 </g>
</svg>